<?xml version="1.0" standalone="no"?>
<!DOCTYPE svg PUBLIC "-//W3C//DTD SVG 20010904//EN"
 "http://www.w3.org/TR/2001/REC-SVG-20010904/DTD/svg10.dtd">
<svg version="1.0" xmlns="http://www.w3.org/2000/svg"
 width="200.000000pt" height="200.000000pt" viewBox="0 0 200.000000 200.000000"
 preserveAspectRatio="xMidYMid meet">

<g transform="translate(0.000000,200.000000) scale(0.100000,-0.100000)"
fill="#000000" stroke="none">
<path d="M259 1218 c-1 -7 -3 -23 -4 -35 -4 -38 9 -47 44 -32 43 19 42 53 0
68 -40 14 -39 14 -40 -1z"/>
<path d="M1180 1143 c-50 -18 -68 -84 -32 -116 23 -21 85 -22 102 -3 19 24 8
61 -19 64 -33 5 -53 -17 -23 -24 32 -9 27 -24 -8 -24 -24 0 -31 5 -36 27 -8
32 18 55 52 47 32 -8 40 14 9 26 -14 6 -27 10 -28 9 -1 0 -9 -3 -17 -6z"/>
<path d="M513 1123 c-3 -10 -14 -39 -24 -65 -15 -38 -16 -48 -5 -48 7 0 19 7
26 15 7 8 20 15 30 15 10 0 23 -7 30 -15 11 -13 40 -21 40 -12 0 2 -11 30 -24
63 -17 42 -30 60 -45 62 -13 2 -24 -3 -28 -15z m41 -39 c9 -23 8 -24 -13 -24
-14 0 -18 5 -14 20 6 24 19 26 27 4z"/>
<path d="M700 1075 l0 -65 45 0 c53 0 85 25 85 68 0 41 -28 62 -83 62 l-47 0
0 -65z m84 29 c29 -29 15 -64 -25 -64 -26 0 -29 3 -29 33 0 50 23 63 54 31z"/>
<path d="M930 1075 l0 -65 56 0 c64 0 73 23 11 28 -44 4 -50 22 -7 22 20 0 30
5 30 15 0 10 -10 15 -31 15 -44 0 -32 24 14 28 58 5 43 22 -18 22 l-55 0 0
-65z"/>
<path d="M1368 1078 c-25 -64 -21 -83 11 -54 22 20 57 21 65 1 3 -8 12 -15 21
-15 19 0 19 -4 -9 66 -34 84 -56 85 -88 2z m56 6 c9 -23 8 -24 -13 -24 -14 0
-18 5 -14 20 6 24 19 26 27 4z"/>
<path d="M247 1124 c-4 -4 -7 -16 -7 -26 0 -13 7 -18 26 -18 21 0 25 4 22 22
-3 23 -27 35 -41 22z"/>
<path d="M306 1114 c-8 -21 1 -34 24 -34 22 0 33 23 17 39 -16 16 -34 14 -41
-5z"/>
<path d="M374 1116 c-8 -21 3 -36 27 -36 15 0 20 6 17 22 -4 27 -35 37 -44 14z"/>
<path d="M1562 1118 c-25 -25 24 -50 57 -29 12 8 12 12 2 25 -16 19 -42 21
-59 4z"/>
<path d="M1650 1111 c0 -6 11 -23 25 -38 23 -26 24 -26 25 -7 0 11 -8 28 -18
37 -21 19 -32 22 -32 8z"/>
<path d="M281 1067 c-16 -16 -14 -34 5 -41 21 -8 34 1 34 24 0 22 -23 33 -39
17z"/>
<path d="M347 1073 c-11 -10 -8 -41 4 -49 6 -3 18 1 27 9 13 13 13 19 2 31
-14 17 -23 20 -33 9z"/>
<path d="M1640 1060 c0 -24 21 -70 32 -70 12 0 10 35 -4 65 -13 30 -28 33 -28
5z"/>
<path d="M1575 1063 c-40 -30 -40 -73 0 -73 27 0 58 32 53 57 -3 19 -36 29
-53 16z m40 -23 c3 -5 -1 -10 -9 -10 -9 0 -16 5 -16 10 0 6 4 10 9 10 6 0 13
-4 16 -10z"/>
<path d="M307 1006 c-3 -8 1 -20 9 -27 12 -10 18 -9 31 3 8 9 12 21 9 27 -10
16 -43 14 -49 -3z"/>
<path d="M285 845 c-27 -63 -27 -99 -1 -62 16 21 74 23 82 2 6 -13 34 -22 34
-10 0 3 -12 34 -26 70 -35 86 -52 86 -89 0z m59 13 c9 -35 8 -38 -14 -38 -11
0 -20 3 -20 8 0 19 13 52 20 52 4 0 10 -10 14 -22z"/>
<path d="M430 840 l0 -70 50 0 c38 0 50 4 50 15 0 10 -11 15 -35 15 l-35 0 0
55 c0 42 -3 55 -15 55 -12 0 -15 -14 -15 -70z"/>
<path d="M560 840 l0 -70 55 0 c42 0 55 3 55 15 0 11 -11 15 -40 15 -50 0 -57
27 -8 32 46 4 49 28 4 28 -25 0 -36 4 -36 15 0 11 11 15 40 15 22 0 40 5 40
10 0 6 -25 10 -55 10 l-55 0 0 -70z"/>
<path d="M710 839 c0 -52 3 -70 13 -67 6 3 14 24 17 47 l5 42 38 -45 c21 -25
42 -46 47 -46 6 0 10 32 10 70 0 56 -3 70 -15 70 -11 0 -15 -12 -15 -42 l-1
-43 -37 43 c-53 60 -62 56 -62 -29z"/>
<path d="M870 901 c0 -5 10 -11 23 -13 19 -3 22 -10 25 -61 4 -77 26 -72 30 6
3 49 6 57 22 57 11 0 20 5 20 10 0 6 -27 10 -60 10 -33 0 -60 -4 -60 -9z"/>
<path d="M1020 840 l0 -70 55 0 c42 0 55 3 55 15 0 11 -11 15 -40 15 -50 0
-57 27 -8 32 46 4 49 28 4 28 -25 0 -36 4 -36 15 0 11 11 15 40 15 22 0 40 5
40 10 0 6 -25 10 -55 10 l-55 0 0 -70z"/>
<path d="M1238 858 c-3 -46 -6 -53 -26 -56 -13 -2 -25 3 -28 12 -6 16 -34 23
-34 8 0 -18 33 -52 51 -52 46 0 59 17 59 80 0 74 -18 80 -22 8z"/>
<path d="M1312 848 c-12 -35 -22 -66 -22 -70 0 -13 40 -9 44 5 9 27 14 127 7
127 -4 0 -17 -28 -29 -62z"/>
<path d="M1374 881 c3 -18 6 -51 6 -72 0 -35 2 -39 26 -39 21 0 25 3 19 18 -4
9 -14 37 -22 62 -20 58 -38 77 -29 31z"/>
<path d="M1460 839 c0 -52 3 -70 13 -67 6 3 14 24 17 47 l5 42 38 -45 c21 -25
42 -46 47 -46 6 0 10 32 10 70 0 56 -3 70 -15 70 -11 0 -15 -12 -15 -42 l-1
-43 -37 43 c-53 60 -62 56 -62 -29z"/>
<path d="M1652 858 c-11 -29 -23 -61 -27 -70 -5 -12 -2 -18 8 -18 8 0 17 7 21
15 8 21 66 19 82 -2 25 -35 26 -3 1 59 -34 85 -57 90 -85 16z m58 -20 c0 -11
-8 -18 -20 -18 -23 0 -25 12 -9 42 9 17 13 18 20 7 5 -8 9 -22 9 -31z"/>
</g>
</svg>
